<svg width="24" height="24" viewBox="0 0 24 24" fill="none" xmlns="http://www.w3.org/2000/svg">
<mask id="mask0_337_2594" style="mask-type:alpha" maskUnits="userSpaceOnUse" x="0" y="0" width="24" height="24">
<rect width="24" height="24" fill="#D9D9D9"/>
</mask>
<g mask="url(#mask0_337_2594)">
<path d="M3.9751 17L7.7251 7H9.5251L13.2751 17H11.5501L10.6501 14.45H6.6001L5.7001 17H3.9751ZM7.1251 13H10.1251L8.6751 8.85H8.5751L7.1251 13ZM16.3501 17.275C15.5334 17.275 14.8918 17.0625 14.4251 16.6375C13.9584 16.2125 13.7251 15.6333 13.7251 14.9C13.7251 14.2 13.9959 13.6292 14.5376 13.1875C15.0793 12.7458 15.7751 12.525 16.6251 12.525C17.0084 12.525 17.3626 12.5542 17.6876 12.6125C18.0126 12.6708 18.2918 12.7667 18.5251 12.9V12.55C18.5251 12.1 18.3709 11.7417 18.0626 11.475C17.7543 11.2083 17.3334 11.075 16.8001 11.075C16.4501 11.075 16.1209 11.15 15.8126 11.3C15.5043 11.45 15.2418 11.6667 15.0251 11.95L13.9501 11.15C14.2668 10.7 14.6668 10.3583 15.1501 10.125C15.6334 9.89167 16.1918 9.775 16.8251 9.775C17.8584 9.775 18.6501 10.0208 19.2001 10.5125C19.7501 11.0042 20.0251 11.7167 20.0251 12.65V17.05H18.5501V16.2H18.4751C18.2584 16.5333 17.9668 16.7958 17.6001 16.9875C17.2334 17.1792 16.8168 17.275 16.3501 17.275ZM16.6001 16.025C17.1334 16.025 17.5876 15.8375 17.9626 15.4625C18.3376 15.0875 18.5251 14.6333 18.5251 14.1C18.2918 13.9667 18.0251 13.8667 17.7251 13.8C17.4251 13.7333 17.1501 13.7 16.9001 13.7C16.3668 13.7 15.9584 13.8042 15.6751 14.0125C15.3918 14.2208 15.2501 14.5167 15.2501 14.9C15.2501 15.2333 15.3751 15.5042 15.6251 15.7125C15.8751 15.9208 16.2001 16.025 16.6001 16.025Z" fill="#1C1B1F"/>
</g>
</svg>
