<svg width="24" height="24" viewBox="0 0 24 24" fill="none" xmlns="http://www.w3.org/2000/svg">
<mask id="mask0_349_237" style="mask-type:alpha" maskUnits="userSpaceOnUse" x="0" y="0" width="24" height="24">
<rect width="24" height="24" fill="#D9D9D9"/>
</mask>
<g mask="url(#mask0_349_237)">
<path d="M12.15 20.0001C10.8833 20.0001 9.75833 19.6251 8.775 18.8751C7.79167 18.1251 7.08333 17.1001 6.65 15.8001L8.85 14.8501C9.08333 15.6501 9.4875 16.3084 10.0625 16.8251C10.6375 17.3418 11.35 17.6001 12.2 17.6001C12.9 17.6001 13.5333 17.4334 14.1 17.1001C14.6667 16.7668 14.95 16.2334 14.95 15.5001C14.95 15.2001 14.8917 14.9251 14.775 14.6751C14.6583 14.4251 14.5 14.2001 14.3 14.0001H17.1C17.1833 14.2334 17.2458 14.4709 17.2875 14.7126C17.3292 14.9543 17.35 15.2168 17.35 15.5001C17.35 16.9334 16.8375 18.0418 15.8125 18.8251C14.7875 19.6084 13.5667 20.0001 12.15 20.0001ZM2 12.0001V10.0001H22V12.0001H2ZM12.05 3.8501C13.15 3.8501 14.1125 4.12093 14.9375 4.6626C15.7625 5.20426 16.4 6.03343 16.85 7.1501L14.65 8.1251C14.5 7.64176 14.2208 7.20843 13.8125 6.8251C13.4042 6.44176 12.8333 6.2501 12.1 6.2501C11.4167 6.2501 10.85 6.40426 10.4 6.7126C9.95 7.02093 9.7 7.4501 9.65 8.0001H7.25C7.28333 6.8501 7.7375 5.87093 8.6125 5.0626C9.4875 4.25426 10.6333 3.8501 12.05 3.8501Z" fill="#777777"/>
</g>
</svg>
