<svg width="192" height="160" viewBox="0 0 192 160" fill="none" xmlns="http://www.w3.org/2000/svg">
<path d="M2.5 8C2.5 3.85787 5.85786 0.5 10 0.5H182C186.142 0.5 189.5 3.85786 189.5 8V40C189.5 44.1421 186.142 47.5 182 47.5H10C5.85786 47.5 2.5 44.1421 2.5 40V8Z" fill="#2E2E2E"/>
<path d="M2.5 8C2.5 3.85787 5.85786 0.5 10 0.5H182C186.142 0.5 189.5 3.85786 189.5 8V40C189.5 44.1421 186.142 47.5 182 47.5H10C5.85786 47.5 2.5 44.1421 2.5 40V8Z" stroke="#404040"/>
<path d="M14 24C14 15.1634 21.1634 8 30 8C38.8366 8 46 15.1634 46 24C46 32.8366 38.8366 40 30 40C21.1634 40 14 32.8366 14 24Z" fill="#404040"/>
<path d="M56 15C56 12.7909 57.7909 11 60 11H174C176.209 11 178 12.7909 178 15V18C178 20.2091 176.209 22 174 22H60C57.7909 22 56 20.2091 56 18V15Z" fill="#404040"/>
<path d="M56 30C56 27.7909 57.7909 26 60 26H112C114.209 26 116 27.7909 116 30V33C116 35.2091 114.209 37 112 37H60C57.7909 37 56 35.2091 56 33V30Z" fill="#404040"/>
<g filter="url(#filter0_d_5573_80525)">
<path d="M2 64C2 59.5817 5.58172 56 10 56H182C186.418 56 190 59.5817 190 64V96C190 100.418 186.418 104 182 104H10C5.58172 104 2 100.418 2 96V64Z" fill="#2E2E2E"/>
<path d="M2.5 64C2.5 59.8579 5.85786 56.5 10 56.5H182C186.142 56.5 189.5 59.8579 189.5 64V96C189.5 100.142 186.142 103.5 182 103.5H10C5.85786 103.5 2.5 100.142 2.5 96V64Z" stroke="#EFC703"/>
<path d="M14 80C14 71.1634 21.1634 64 30 64C38.8366 64 46 71.1634 46 80C46 88.8366 38.8366 96 30 96C21.1634 96 14 88.8366 14 80Z" fill="#404040"/>
<path d="M56 71C56 68.7909 57.7909 67 60 67H174C176.209 67 178 68.7909 178 71V74C178 76.2091 176.209 78 174 78H60C57.7909 78 56 76.2091 56 74V71Z" fill="#404040"/>
<path d="M56 86C56 83.7909 57.7909 82 60 82H112C114.209 82 116 83.7909 116 86V89C116 91.2091 114.209 93 112 93H60C57.7909 93 56 91.2091 56 89V86Z" fill="#404040"/>
</g>
<path d="M2.5 120C2.5 115.858 5.85786 112.5 10 112.5H182C186.142 112.5 189.5 115.858 189.5 120V152C189.5 156.142 186.142 159.5 182 159.5H10C5.85786 159.5 2.5 156.142 2.5 152V120Z" fill="#2E2E2E"/>
<path d="M2.5 120C2.5 115.858 5.85786 112.5 10 112.5H182C186.142 112.5 189.5 115.858 189.5 120V152C189.5 156.142 186.142 159.5 182 159.5H10C5.85786 159.5 2.5 156.142 2.5 152V120Z" stroke="#404040"/>
<path d="M14 136C14 127.163 21.1634 120 30 120C38.8366 120 46 127.163 46 136C46 144.837 38.8366 152 30 152C21.1634 152 14 144.837 14 136Z" fill="#404040"/>
<path d="M56 127C56 124.791 57.7909 123 60 123H174C176.209 123 178 124.791 178 127V130C178 132.209 176.209 134 174 134H60C57.7909 134 56 132.209 56 130V127Z" fill="#404040"/>
<path d="M56 142C56 139.791 57.7909 138 60 138H112C114.209 138 116 139.791 116 142V145C116 147.209 114.209 149 112 149H60C57.7909 149 56 147.209 56 145V142Z" fill="#404040"/>
<rect x="2" width="188" height="56" fill="url(#paint0_linear_5573_80525)"/>
<rect x="2" y="104" width="188" height="56" fill="url(#paint1_linear_5573_80525)"/>
<defs>
<filter id="filter0_d_5573_80525" x="0" y="55" width="192" height="52" filterUnits="userSpaceOnUse" color-interpolation-filters="sRGB">
<feFlood flood-opacity="0" result="BackgroundImageFix"/>
<feColorMatrix in="SourceAlpha" type="matrix" values="0 0 0 0 0 0 0 0 0 0 0 0 0 0 0 0 0 0 127 0" result="hardAlpha"/>
<feOffset dy="1"/>
<feGaussianBlur stdDeviation="1"/>
<feComposite in2="hardAlpha" operator="out"/>
<feColorMatrix type="matrix" values="0 0 0 0 0.937255 0 0 0 0 0.780392 0 0 0 0 0.0117647 0 0 0 0.32 0"/>
<feBlend mode="normal" in2="BackgroundImageFix" result="effect1_dropShadow_5573_80525"/>
<feBlend mode="normal" in="SourceGraphic" in2="effect1_dropShadow_5573_80525" result="shape"/>
</filter>
<linearGradient id="paint0_linear_5573_80525" x1="96" y1="0" x2="96" y2="56" gradientUnits="userSpaceOnUse">
<stop stop-color="#2E2E2E"/>
<stop offset="1" stop-color="#2E2E2E" stop-opacity="0"/>
</linearGradient>
<linearGradient id="paint1_linear_5573_80525" x1="96" y1="160" x2="96" y2="104" gradientUnits="userSpaceOnUse">
<stop stop-color="#2E2E2E"/>
<stop offset="1" stop-color="#2E2E2E" stop-opacity="0"/>
</linearGradient>
</defs>
</svg>
