<svg width="14" height="14" viewBox="0 0 14 14" fill="none" xmlns="http://www.w3.org/2000/svg">
<path fill-rule="evenodd" clip-rule="evenodd" d="M7.76891 0.220314C7.29839 -0.0734379 6.70161 -0.0734378 6.23109 0.220314L4.81636 1.10354C4.68024 1.18851 4.53098 1.25034 4.37464 1.2865L2.74974 1.66233C2.20932 1.78733 1.78733 2.20932 1.66233 2.74974L1.2865 4.37464C1.25034 4.53098 1.18851 4.68024 1.10354 4.81636L0.220314 6.23109C-0.0734379 6.70161 -0.0734378 7.29839 0.220314 7.76891L1.10354 9.18364C1.18851 9.31976 1.25034 9.46902 1.2865 9.62537L1.66233 11.2503C1.78733 11.7907 2.20932 12.2127 2.74974 12.3377L4.37464 12.7135C4.53098 12.7497 4.68024 12.8115 4.81636 12.8965L6.23109 13.7797C6.70161 14.0734 7.29839 14.0734 7.76891 13.7797L9.18364 12.8965C9.31976 12.8115 9.46902 12.7497 9.62537 12.7135L11.2503 12.3377C11.7907 12.2127 12.2127 11.7907 12.3377 11.2503L12.7135 9.62536C12.7497 9.46902 12.8115 9.31976 12.8965 9.18364L13.7797 7.76891C14.0734 7.29839 14.0734 6.70161 13.7797 6.23109L12.8965 4.81636C12.8115 4.68024 12.7497 4.53098 12.7135 4.37464L12.3377 2.74974C12.2127 2.20932 11.7907 1.78733 11.2503 1.66233L9.62537 1.2865C9.46902 1.25034 9.31976 1.18851 9.18364 1.10354L7.76891 0.220314ZM9.45472 4.37291C9.70279 4.12484 10.105 4.12484 10.3531 4.37291C10.6011 4.62098 10.6011 5.02318 10.3531 5.27126L6.36021 9.2641C6.11214 9.51218 5.70994 9.51218 5.46187 9.2641L3.64694 7.44917C3.39887 7.2011 3.39887 6.7989 3.64694 6.55083C3.89501 6.30276 4.29721 6.30276 4.54528 6.55083L5.91104 7.91659L9.45472 4.37291Z" fill="#4A99E9"/>
</svg>
