<svg width="20" height="20" viewBox="0 0 20 20" fill="none" xmlns="http://www.w3.org/2000/svg">
<path d="M1.66602 2.50008C1.66602 2.03984 2.03911 1.66675 2.49935 1.66675C2.95959 1.66675 3.33268 2.03984 3.33268 2.50008V4.83341C3.33268 5.3857 3.7804 5.83342 4.33268 5.83342H15.666C16.2183 5.83342 16.666 5.3857 16.666 4.83341V2.50008C16.666 2.03984 17.0391 1.66675 17.4993 1.66675C17.9596 1.66675 18.3327 2.03985 18.3327 2.50008V5.50008C18.3327 6.60465 17.4373 7.50008 16.3327 7.50008H3.66602C2.56145 7.50008 1.66602 6.60465 1.66602 5.50008V2.50008Z" fill="#77818A"/>
<path d="M1.66602 14.5001C1.66602 13.3955 2.56145 12.5001 3.66601 12.5001H16.3327C17.4373 12.5001 18.3327 13.3955 18.3327 14.5001V17.5001C18.3327 17.9603 17.9596 18.3334 17.4993 18.3334C17.0391 18.3334 16.666 17.9603 16.666 17.5001V14.1667H3.33268V17.5001C3.33268 17.9603 2.95959 18.3334 2.49935 18.3334C2.03911 18.3334 1.66602 17.9603 1.66602 17.5001V14.5001Z" fill="#77818A"/>
<path fill-rule="evenodd" clip-rule="evenodd" d="M8.08243 8.08316C8.30432 7.86128 8.66407 7.86128 8.88596 8.08316L9.99935 9.19655L11.1127 8.08316C11.3346 7.86128 11.6944 7.86128 11.9163 8.08316C12.1382 8.30505 12.1382 8.66481 11.9163 8.8867L10.8029 10.0001L11.9163 11.1135C12.1382 11.3354 12.1382 11.6951 11.9163 11.917C11.6944 12.1389 11.3346 12.1389 11.1127 11.917L9.99935 10.8036L8.88596 11.917C8.66407 12.1389 8.30432 12.1389 8.08243 11.917C7.86054 11.6951 7.86054 11.3354 8.08243 11.1135L9.19582 10.0001L8.08243 8.8867C7.86054 8.66481 7.86054 8.30505 8.08243 8.08316Z" fill="#77818A"/>
</svg>