<svg width="20" height="20" viewBox="0 0 20 20" fill="none" xmlns="http://www.w3.org/2000/svg">
<g id="social-farcaster" clip-path="url(#clip0_118_16545)">
<path id="Vector" fill-rule="evenodd" clip-rule="evenodd" d="M4.95171 20H15.0483C17.7787 20 20 17.7788 20 15.0483V4.9518C20 2.22136 17.7787 0 15.0483 0H4.95171C2.22134 0 0 2.22136 0 4.9518V15.0483C0 17.7788 2.22134 20 4.95171 20Z" fill="#9C7BD2"/>
<path id="Vector_2" d="M5.6215 4.16675H14.2214V5.82238H16.6668L16.1543 7.47842H15.7204V14.1778C15.938 14.1778 16.1147 14.346 16.1147 14.5538V15.0054H16.1936C16.4116 15.0054 16.5883 15.174 16.5883 15.3818V15.8334H12.1698V15.3818C12.1698 15.174 12.3464 15.0054 12.5645 15.0054H12.6434V14.5538C12.6434 14.3731 12.7771 14.2223 12.955 14.1859L12.9466 10.4893C12.8071 9.01236 11.5061 7.85483 9.92143 7.85483C8.33679 7.85483 7.03574 9.01236 6.89624 10.4893L6.88788 14.1826C7.09839 14.2126 7.35735 14.3674 7.35735 14.5538V15.0054H7.43629C7.65389 15.0054 7.83057 15.174 7.83057 15.3818V15.8334H3.41244V15.3818C3.41244 15.174 3.58911 15.0054 3.80672 15.0054H3.88566V14.5538C3.88566 14.346 4.06233 14.1778 4.28036 14.1778V7.47842H3.8464L3.3335 5.82238H5.6215V4.16675Z" fill="white"/>
</g>
<defs>
<clipPath id="clip0_118_16545">
<rect width="20" height="20" fill="white"/>
</clipPath>
</defs>
</svg>
