<svg width="20" height="28" viewBox="0 0 20 28" fill="none" xmlns="http://www.w3.org/2000/svg">
<g id="wizard_svg">
<g id="&#208;&#191;&#208;&#190;&#209;&#129;&#208;&#190;&#209;&#133;">
<rect id="Rectangle 44" y="9.00293" width="1" height="1" fill="#FFDE00"/>
<rect id="Rectangle 47" x="1" y="10.001" width="1" height="1" fill="#FFDE00"/>
<rect id="Rectangle 48" x="2" y="11.0005" width="1" height="1" fill="#FFDE00"/>
<rect id="Rectangle 55" x="2" y="12.002" width="1" height="1" fill="#E57B27"/>
<rect id="Rectangle 57" x="2" y="19.0015" width="1" height="1" fill="#E57B27"/>
<rect id="Rectangle 59" x="2" y="24.0015" width="1" height="1" fill="#E57B27"/>
<rect id="Rectangle 60" x="2" y="25.001" width="1" height="1" fill="#924C15"/>
<rect id="Rectangle 61" x="1" y="25.001" width="1" height="2" fill="#E57B27"/>
<rect id="Rectangle 63" x="3" y="22.0005" width="1" height="2" fill="#E57B27"/>
<rect id="Rectangle 62" x="2" y="26.0005" width="1" height="2" fill="#E57B27"/>
<rect id="Rectangle 56" x="2" y="13" width="1" height="6" fill="#924C15"/>
<rect id="Rectangle 58" x="2" y="19.9995" width="1" height="4" fill="#924C15"/>
<rect id="Rectangle 49" x="3" y="10.001" width="1" height="1" fill="#FFDE00"/>
<rect id="Rectangle 50" x="4" y="9.00293" width="1" height="1" fill="#FFDE00"/>
<rect id="Rectangle 51" x="3" y="7.00195" width="2" height="1" fill="#FFDE00"/>
<rect id="Rectangle 52" y="7.00195" width="2" height="1" fill="#FFDE00"/>
<rect id="Rectangle 53" x="1" y="6.00049" width="3" height="1" fill="#FFDE00"/>
<rect id="Rectangle 54" x="2" y="5.00098" width="1" height="1" fill="#FFDE00"/>
<rect id="Rectangle 45" x="1" y="8" width="3" height="1" fill="#FFBA00"/>
<rect id="Rectangle 46" x="3" y="7.00195" width="3" height="1" transform="rotate(90 3 7.00195)" fill="#FFBA00"/>
</g>
<g id="hand">
<rect id="Rectangle 63_2" x="1" y="15.001" width="1" height="4" fill="#DD9868"/>
<rect id="Rectangle 64" x="3" y="15.001" width="1" height="4" fill="#F1B68D"/>
<rect id="Rectangle 65" x="4" y="16.0005" width="1" height="2" fill="#F1B68D"/>
</g>
<g id="body">
<rect id="Rectangle 100" x="10" y="10.9985" width="8.00001" height="11" fill="#2C2CA4"/>
<rect id="Rectangle 105" width="1" height="6" transform="matrix(-1 0 0 1 19 15.9985)" fill="#2C2CA4"/>
<rect id="Rectangle 66" x="4" y="15.0005" width="2" height="1" fill="#5E5DEC"/>
<rect id="Rectangle 72" x="5" y="13.9976" width="2" height="1" fill="#2C2CA4"/>
<rect id="Rectangle 79" x="5" y="12.9995" width="3" height="1" fill="#5E5DEC"/>
<rect id="Rectangle 80" x="6" y="11.998" width="2" height="1" fill="#5E5DEC"/>
<rect id="Rectangle 81" x="5" y="11.998" width="1" height="1" fill="#2C2CA4"/>
<rect id="Rectangle 82" x="6" y="10.9985" width="3" height="1" fill="#2C2CA4"/>
<rect id="Rectangle 83" x="8" y="11.998" width="2" height="1" fill="#2C2CA4"/>
<rect id="Rectangle 84" x="8" y="12.9995" width="2" height="1" fill="#7B62CF"/>
<rect id="Rectangle 86" x="10" y="13.9976" width="3" height="1" transform="rotate(90 10 13.9976)" fill="#7B62CF"/>
<rect id="Rectangle 85" x="7" y="13.9976" width="2" height="1" fill="#9291FF"/>
<rect id="Rectangle 87" x="9" y="15.0005" width="2" height="1" transform="rotate(90 9 15.0005)" fill="#9291FF"/>
<rect id="Rectangle 88" x="10" y="16.998" width="2" height="2" transform="rotate(90 10 16.998)" fill="#9291FF"/>
<rect id="Rectangle 89" x="10" y="18.9976" width="3" height="3" transform="rotate(90 10 18.9976)" fill="#9291FF"/>
<rect id="Rectangle 91" x="11" y="18.9976" width="2" height="1" transform="rotate(90 11 18.9976)" fill="#7B62CF"/>
<rect id="Rectangle 110" x="17" y="24.999" width="1" height="1" transform="rotate(90 17 24.999)" fill="#7B62CF"/>
<rect id="Rectangle 90" x="9" y="21.998" width="1" height="2" transform="rotate(90 9 21.998)" fill="#9291FF"/>
<rect id="Rectangle 92" x="8" y="22.998" width="1" height="1" transform="rotate(90 8 22.998)" fill="#9291FF"/>
<rect id="Rectangle 73" x="6" y="15.0005" width="2" height="1" fill="#2C2CA4"/>
<rect id="Rectangle 75" x="8" y="15.9985" width="2" height="1" transform="rotate(90 8 15.9985)" fill="#2C2CA4"/>
<rect id="Rectangle 74" x="6" y="17.9995" width="2" height="1" fill="#2C2CA4"/>
<rect id="Rectangle 76" x="6" y="18.9976" width="1" height="6" fill="#2C2CA4"/>
<rect id="Rectangle 68" x="4" y="17.9995" width="2" height="1" fill="#5E5DEC"/>
<rect id="Rectangle 70" x="3" y="19.999" width="2" height="1" fill="#5E5DEC"/>
<rect id="Rectangle 77" x="3" y="20.9985" width="3" height="1" fill="#2C2CA4"/>
<rect id="Rectangle 69" x="3" y="18.9976" width="3" height="1" fill="#5E5DEC"/>
<rect id="Rectangle 67" x="5" y="15.9985" width="2" height="2" fill="#5E5DEC"/>
<rect id="Rectangle 71" x="3" y="12.9995" width="2" height="2" fill="#2C2CA4"/>
<rect id="Rectangle 78" x="5" y="19.999" width="1" height="4" fill="#2C2CA4"/>
<rect id="Rectangle 93" x="7" y="23.9995" width="11" height="1" fill="#2C2CA4"/>
<rect id="Rectangle 96" x="9" y="24.999" width="7.00001" height="1" fill="#2C2CA4"/>
<rect id="Rectangle 94" x="8" y="22.998" width="11" height="1" fill="#2C2CA4"/>
<rect id="Rectangle 95" x="9" y="21.998" width="10" height="1" fill="#2C2CA4"/>
<rect id="Rectangle 109" x="19" y="20.9985" width="1" height="2" fill="#2C2CA4"/>
<rect id="Rectangle 97" x="12" y="19.999" width="3" height="3" fill="#5E5DEC"/>
<rect id="Rectangle 106" x="12" y="17.9995" width="3" height="1" fill="#E57B27"/>
<rect id="Rectangle 107" x="12" y="16.998" width="3" height="1" fill="#924C15"/>
<rect id="Rectangle 108" x="12" y="15.9985" width="3" height="1" fill="#5E5DEC"/>
<rect id="Rectangle 101" x="17" y="13.9976" width="9.00001" height="1" transform="rotate(90 17 13.9976)" fill="#7B62CF"/>
<rect id="Rectangle 102" x="18" y="19.999" width="2" height="1" transform="rotate(90 18 19.999)" fill="#9291FF"/>
<rect id="Rectangle 104" x="18" y="16.998" width="1" height="1" transform="rotate(90 18 16.998)" fill="#9291FF"/>
<rect id="Rectangle 103" x="18" y="17.9995" width="2" height="1" transform="rotate(90 18 17.9995)" fill="#7B62CF"/>
</g>
<g id="hat">
<rect id="Rectangle 111" x="8" y="6.99854" width="2" height="1" fill="#7B62CF"/>
<rect id="Rectangle 113" x="7" y="6.99854" width="1" height="1" fill="#2C2CA4"/>
<rect id="Rectangle 114" x="10" y="5.99902" width="1" height="1" fill="#7B62CF"/>
<rect id="Rectangle 112" x="7" y="5.99902" width="3" height="1" fill="#2C2CA4"/>
<rect id="Rectangle 115" x="11" y="5.99902" width="3" height="1" fill="#2C2CA4"/>
<rect id="Rectangle 116" x="15" y="5.99902" width="4" height="1" fill="#2C2CA4"/>
<rect id="Rectangle 117" x="16" y="8" width="3" height="1" transform="rotate(-90 16 8)" fill="#2C2CA4"/>
<rect id="Rectangle 118" x="15" y="5.99902" width="1" height="1" transform="rotate(-90 15 5.99902)" fill="#5E5DEC"/>
<rect id="Rectangle 129" x="14" y="4.99951" width="1" height="1" transform="rotate(-90 14 4.99951)" fill="#5E5DEC"/>
<rect id="Rectangle 120" x="13" y="5.99902" width="1" height="1" transform="rotate(-90 13 5.99902)" fill="#5E5DEC"/>
<rect id="Rectangle 121" x="9" y="5.99902" width="1" height="4" transform="rotate(-90 9 5.99902)" fill="#9291FF"/>
<rect id="Rectangle 131" x="11" y="4.99951" width="1" height="3" transform="rotate(-90 11 4.99951)" fill="#9291FF"/>
<rect id="Rectangle 132" x="10" y="3.99951" width="1" height="2" transform="rotate(-90 10 3.99951)" fill="#9291FF"/>
<rect id="Rectangle 133" x="8" y="3" width="1" height="4" transform="rotate(-90 8 3)" fill="#9291FF"/>
<rect id="Rectangle 119" x="14" y="5.99902" width="1" height="1" transform="rotate(-90 14 5.99902)" fill="#2C2CA4"/>
<rect id="Rectangle 130" x="15" y="4.99951" width="1" height="1" transform="rotate(-90 15 4.99951)" fill="#2C2CA4"/>
<rect id="Rectangle 135" x="14" y="3.99951" width="1" height="1" transform="rotate(-90 14 3.99951)" fill="#2C2CA4"/>
<rect id="Rectangle 134" x="12" y="3.99951" width="2" height="2" transform="rotate(-90 12 3.99951)" fill="#2C2CA4"/>
<rect id="Rectangle 122" x="8" y="5.99902" width="3" height="1" transform="rotate(-90 8 5.99902)" fill="#2C2CA4"/>
<rect id="Rectangle 123" x="9" y="4.99951" width="2" height="1" transform="rotate(-90 9 4.99951)" fill="#2C2CA4"/>
<rect id="Rectangle 124" x="10" y="4.99951" width="1" height="1" transform="rotate(-90 10 4.99951)" fill="#2C2CA4"/>
<rect id="Rectangle 125" x="7" y="3.99951" width="1" height="1" transform="rotate(-90 7 3.99951)" fill="#2C2CA4"/>
<rect id="Rectangle 128" x="7" y="0.999023" width="1" height="2" transform="rotate(-90 7 0.999023)" fill="#2C2CA4"/>
<rect id="Rectangle 127" x="6" y="2.00049" width="1" height="7.00001" transform="rotate(-90 6 2.00049)" fill="#2C2CA4"/>
<rect id="Rectangle 126" x="5" y="3" width="1" height="3" transform="rotate(-90 5 3)" fill="#2C2CA4"/>
</g>
<g id="legs">
<rect id="Rectangle 111_2" x="12" y="25.999" width="1" height="2" transform="rotate(90 12 25.999)" fill="#7B62CF"/>
<rect id="Rectangle 114_2" x="12" y="26.9985" width="1" height="2" transform="rotate(90 12 26.9985)" fill="#2C2CA4"/>
<rect id="Rectangle 113_2" x="10" y="26.9985" width="1" height="1" transform="rotate(90 10 26.9985)" fill="#7B62CF"/>
<rect id="Rectangle 112_2" x="13" y="25.999" width="2" height="1" transform="rotate(90 13 25.999)" fill="#2C2CA4"/>
<rect id="Rectangle 116_2" x="17" y="26.9985" width="1" height="2" transform="rotate(90 17 26.9985)" fill="#2C2CA4"/>
<rect id="Rectangle 117_2" x="15" y="26.9985" width="1" height="1" transform="rotate(90 15 26.9985)" fill="#7B62CF"/>
<rect id="Rectangle 119_2" x="19" y="26.9985" width="1" height="1" transform="rotate(90 19 26.9985)" fill="#7B62CF"/>
<rect id="Rectangle 118_2" x="18" y="25.999" width="2" height="1" transform="rotate(90 18 25.999)" fill="#7B62CF"/>
<rect id="Rectangle 115_2" x="17" y="25.999" width="1" height="3" transform="rotate(90 17 25.999)" fill="#2C2CA4"/>
</g>
<g id="head">
<rect id="Rectangle 93_2" x="6" y="10.0005" width="2" height="1" fill="#ADBFC4"/>
<rect id="Rectangle 95_2" x="7" y="8.99756" width="1" height="1" fill="#ADBFC4"/>
<rect id="Rectangle 96_2" x="8" y="7.99951" width="1" height="1" fill="#ADBFC4"/>
<rect id="Rectangle 117_3" x="17" y="8.99756" width="1" height="1" fill="#ADBFC4"/>
<rect id="Rectangle 98" x="9" y="7.99951" width="1" height="2" fill="#F1B68D"/>
<rect id="Rectangle 113_3" x="12" y="7.99951" width="1" height="1" fill="#F1B68D"/>
<rect id="Rectangle 104_2" x="10" y="8.99756" width="1" height="4" fill="#DBF0F6"/>
<rect id="Rectangle 105_2" x="11" y="8.99756" width="1" height="5" fill="#DBF0F6"/>
<rect id="Rectangle 107_2" x="12" y="10.9985" width="1" height="4" fill="#DBF0F6"/>
<rect id="Rectangle 108_2" x="12" y="8.99756" width="4" height="1" fill="#DBF0F6"/>
<rect id="Rectangle 109_2" x="14" y="10.0005" width="3" height="1" fill="#DBF0F6"/>
<rect id="Rectangle 112_3" x="13" y="14.999" width="1" height="1" fill="#DBF0F6"/>
<rect id="Rectangle 110_2" x="13" y="10.9985" width="3" height="2" fill="#DBF0F6"/>
<rect id="Rectangle 111_3" x="12" y="12.9995" width="3" height="2" fill="#DBF0F6"/>
<rect id="Rectangle 101_2" x="10" y="6.99805" width="5" height="1" fill="#F1B68D"/>
<rect id="Rectangle 122_2" x="14" y="5.99854" width="1" height="1" fill="#F1B68D"/>
<rect id="Rectangle 102_2" x="10" y="7.99951" width="2" height="1" fill="#141445"/>
<rect id="Rectangle 106_2" x="12" y="10.0005" width="2" height="1" fill="#F1B68D"/>
<rect id="Rectangle 103_2" x="13" y="7.99951" width="2" height="1" fill="#141445"/>
<rect id="Rectangle 99" x="9" y="10.0005" width="1" height="1" fill="#F2C6A7"/>
<rect id="Rectangle 114_3" x="15" y="7.99951" width="1" height="1" fill="#F2C6A7"/>
<rect id="Rectangle 115_3" x="15" y="6.99805" width="1" height="1" fill="#ADBFC4"/>
<rect id="Rectangle 116_3" x="16" y="7.99951" width="1" height="2" fill="#ADBFC4"/>
<rect id="Rectangle 118_3" x="17" y="10.0005" width="1" height="2" fill="#778A8F"/>
<rect id="Rectangle 121_2" x="19" y="12.9995" width="1" height="1" fill="#778A8F"/>
<rect id="Rectangle 119_3" x="18" y="13.9976" width="1" height="2" fill="#778A8F"/>
<rect id="Rectangle 120_2" x="18" y="10.9985" width="1" height="3" fill="#ADBFC4"/>
<rect id="Rectangle 100_2" x="9" y="10.9985" width="1" height="1" fill="#ADBFC4"/>
<rect id="Rectangle 94_2" x="8" y="8.99756" width="1" height="2" fill="#778A8F"/>
</g>
</g>
</svg>
